<?xml version="1.0" encoding="UTF-8"?>
<svg width="180px" height="55px" viewBox="0 0 180 55" version="1.1" xmlns="http://www.w3.org/2000/svg" xmlns:xlink="http://www.w3.org/1999/xlink">
    <!-- Generator: Sketch 60.1 (88133) - https://sketch.com -->
    <title>Logo</title>
    <desc>Created with Sketch.</desc>
    <defs>
        <polygon id="path-1" points="0 54.1546813 179.157363 54.1546813 179.157363 0.000395604396 0 0.000395604396"></polygon>
    </defs>
    <g id="Logo" stroke="none" stroke-width="1" fill="none" fill-rule="evenodd">
        <g id="Group-23" transform="translate(1.000000, 0.000000)">
            <path d="M0.000197802198,18.7736044 C0.000197802198,13.4883297 3.49931868,9.15250549 9.40371429,9.15250549 C15.3437143,9.15250549 16.6195385,12.9067912 16.6195385,12.9067912 L16.6195385,15.3120659 L13.521956,15.3120659 C13.521956,15.3120659 12.8652527,12.9443736 9.40371429,12.9443736 C6.01338462,12.9443736 4.44679121,15.6028352 4.44679121,18.7736044 C4.44679121,21.981956 6.01338462,24.5692088 9.40371429,24.5692088 C13.0116264,24.5692088 13.5575604,22.1995385 13.5575604,22.1995385 L16.6571209,22.1995385 L16.6571209,24.6048132 C16.6571209,24.6048132 15.3061319,28.3610769 9.40371429,28.3610769 C3.09778022,28.3610769 0.000197802198,24.0212967 0.000197802198,18.7736044" id="Fill-1" fill="#FFFFFF"></path>
            <path d="M20.7017802,9.62525275 L24.7468352,9.62525275 L25.003978,12.0325055 C25.9138681,10.4283297 27.5892527,9.18810989 30.1052967,9.18810989 C32.8389231,9.18810989 34.3343077,10.6478901 34.6606813,12.5052527 L34.6606813,14.9837143 L31.4899121,14.9837143 C31.4543077,14.9837143 31.1615604,12.9443736 28.6099121,12.9443736 C26.2422198,12.9443736 25.1107912,14.8749231 25.1107912,17.4621758 L25.1107912,27.921956 L20.7017802,27.921956 L20.7017802,9.62525275 Z" id="Fill-3" fill="#FFFFFF"></path>
            <path d="M50.5170989,18.7368132 C50.5170989,15.6036264 48.9485275,12.9787912 45.5225934,12.9787912 C42.0966593,12.9787912 40.4944615,15.6036264 40.4944615,18.7368132 C40.4944615,21.9451648 42.0966593,24.568022 45.5225934,24.568022 C48.9485275,24.568022 50.5170989,21.9451648 50.5170989,18.7368132 M36.0478681,18.7368132 C36.0478681,13.4535165 39.546989,9.1889011 45.5225934,9.1889011 C51.426989,9.1889011 54.9617143,13.4535165 54.9617143,18.7368132 C54.9617143,24.0220879 51.426989,28.3598901 45.5225934,28.3598901 C39.546989,28.3598901 36.0478681,24.0220879 36.0478681,18.7368132" id="Fill-5" fill="#FFFFFF"></path>
            <polygon id="Fill-7" fill="#FFFFFF" points="70.0886374 16.1503516 66.2987473 27.9215604 62.8352308 27.9215604 57.0416044 12.1765055 57.0416044 9.62485714 60.6139121 9.62485714 64.8765495 21.4692527 68.7396264 9.62485714 72.0211648 9.62485714 75.993033 21.398044 80.1488571 9.62485714 83.5016044 9.62485714 83.5016044 12.0321099 77.5596264 27.9215604 74.0980879 27.9215604"></polygon>
            <path d="M100.158725,18.7368132 C100.158725,15.6036264 98.153011,13.051978 95.0554286,13.051978 C91.6670769,13.051978 89.9897143,15.6036264 89.9897143,18.7743956 C89.9897143,21.9095604 91.6670769,24.4968132 95.0554286,24.4968132 C98.153011,24.4968132 100.158725,21.9451648 100.158725,18.7368132 M85.5431209,18.7743956 C85.5431209,13.4179121 88.7870769,9.1889011 93.9615824,9.1889011 C96.7327912,9.1889011 98.8097143,10.3915385 100.158725,12.3240659 L100.158725,0.586483516 L104.567736,0.586483516 L104.567736,27.9227473 L100.522681,27.9227473 L100.158725,25.1891209 C98.8472967,27.1196703 96.6952088,28.3598901 93.925978,28.3598901 C88.6763077,28.3598901 85.5431209,24.0220879 85.5431209,18.7743956" id="Fill-9" fill="#FFFFFF"></path>
            <polygon id="Fill-11" fill="#FFFFFF" points="16.2532088 53.7173407 8.9641978 37.9722857 8.9641978 35.4206374 12.5365055 35.4206374 18.1481538 47.8129451 23.7241978 35.4206374 27.0789231 35.4206374 27.0789231 37.8278901 19.7167253 53.7173407"></polygon>
            <path d="M43.3699121,44.5323956 C43.3699121,41.3992088 41.8033187,38.7743736 38.3773846,38.7743736 C34.9514505,38.7743736 33.3492527,41.3992088 33.3492527,44.5323956 C33.3492527,47.7407473 34.9514505,50.3636044 38.3773846,50.3636044 C41.8033187,50.3636044 43.3699121,47.7407473 43.3699121,44.5323956 M28.9026593,44.5323956 C28.9026593,39.2471209 32.3998022,34.9844835 38.3773846,34.9844835 C44.2817802,34.9844835 47.8165055,39.2471209 47.8165055,44.5323956 C47.8165055,49.8176703 44.2817802,54.1534945 38.3773846,54.1534945 C32.3998022,54.1534945 28.9026593,49.8176703 28.9026593,44.5323956" id="Fill-13" fill="#FFFFFF"></path>
            <mask id="mask-2" fill="white">
                <use xlink:href="#path-1"></use>
            </mask>
            <g id="Clip-16"></g>
            <polygon id="Fill-15" fill="#FFFFFF" mask="url(#mask-2)" points="51.8261538 53.7175385 56.2351648 53.7175385 56.2351648 35.4208352 51.8261538 35.4208352"></polygon>
            <path d="M60.2448132,44.568989 C60.2448132,39.2837143 63.7459121,34.9478901 69.6483297,34.9478901 C75.5903077,34.9478901 76.8641538,38.7021758 76.8641538,38.7021758 L76.8641538,41.1054725 L73.7665714,41.1054725 C73.7665714,41.1054725 73.1098681,38.7377802 69.6483297,38.7377802 C66.259978,38.7377802 64.6914066,41.3982198 64.6914066,44.568989 C64.6914066,47.7753626 66.259978,50.3645934 69.6483297,50.3645934 C73.2562418,50.3645934 73.8021758,47.9949231 73.8021758,47.9949231 L76.9017363,47.9949231 L76.9017363,50.4001978 C76.9017363,50.4001978 75.5527253,54.1544835 69.6483297,54.1544835 C63.3423956,54.1544835 60.2448132,49.8166813 60.2448132,44.568989" id="Fill-17" fill="#FFFFFF" mask="url(#mask-2)"></path>
            <path d="M93.4482857,42.4190769 C93.4482857,40.3065495 92.0656484,38.6291868 89.1480659,38.6291868 C86.2344396,38.6291868 84.9190549,40.1957802 84.4463077,42.4190769 L93.4482857,42.4190769 Z M79.8553187,44.5691868 C79.8553187,39.2839121 83.1724615,34.9836923 89.1480659,34.9836923 C95.1612527,34.9836923 97.7504835,38.556 97.7504835,43.2577582 C97.7504835,44.4603956 97.5685055,45.4078681 97.5685055,45.4078681 L84.3019121,45.4078681 C84.5570769,48.5054505 86.270044,50.4735824 89.5476264,50.4735824 C93.3394945,50.4735824 94.1781758,48.5054505 94.1781758,48.5054505 L97.3845495,48.5054505 L97.3845495,50.9107253 C97.3845495,50.9107253 95.5627912,54.1546813 89.514,54.1546813 C83.0992747,54.1546813 79.8553187,50.1096264 79.8553187,44.5691868 L79.8553187,44.5691868 Z" id="Fill-18" fill="#FFFFFF" mask="url(#mask-2)"></path>
            <path d="M152.36011,3.06534066 C148.139011,3.06534066 143.981209,4.2027033 140.262527,6.42204396 C129.051099,13.1176484 125.375934,27.6838022 132.06956,38.8952308 C135.313516,44.3268791 140.476154,48.1701758 146.611978,49.716989 C152.743846,51.2638022 159.113077,50.3301758 164.542747,47.0881978 C169.974396,43.8442418 173.817692,38.6816044 175.364505,32.5477582 C176.911319,26.4139121 175.975714,20.0446813 172.735714,14.615011 C169.491758,9.18336264 164.329121,5.34006593 158.193297,3.79325275 C156.262747,3.30665934 154.302527,3.06534066 152.36011,3.06534066 M152.449121,53.5108352 C150.255495,53.5108352 148.044066,53.2378681 145.862308,52.687978 C138.935275,50.9394066 133.104066,46.5996264 129.440769,40.4657802 C121.880769,27.8064396 126.028681,11.3532527 138.691978,3.79325275 C144.823846,0.131934066 152.015934,-0.92432967 158.942967,0.822263736 C165.87,2.57083516 171.701209,6.91061538 175.364505,13.0444615 C179.025824,19.1783077 180.082088,26.3684176 178.335495,33.2954505 C176.586923,40.2224835 172.247143,46.0536923 166.113297,49.716989 C161.913956,52.2270989 157.218132,53.5108352 152.449121,53.5108352" id="Fill-19" fill="#00E7EC" mask="url(#mask-2)"></path>
            <path d="M149.539846,47.5263297 C151.88578,45.0992967 153.571055,42.0986374 154.419626,38.739956 C155.695451,33.6781978 154.926,28.4225934 152.247758,23.9403956 C148.594352,17.8223736 142.100505,14.4280879 135.444462,14.4261099 C134.716549,15.4309451 134.08556,16.4951209 133.549516,17.6028132 C134.180505,17.5296264 134.813473,17.4861099 135.444462,17.4861099 C141.058088,17.4861099 146.537209,20.3522637 149.618967,25.5109451 C151.87589,29.2909451 152.524681,33.7217143 151.448637,37.9902857 C150.574352,41.4557802 148.647758,44.4742418 145.931934,46.6955604 C146.373033,46.837978 146.820066,46.9724835 147.275011,47.0852308 C148.026659,47.2770989 148.782264,47.4195165 149.539846,47.5263297" id="Fill-20" fill="#00E7EC" mask="url(#mask-2)"></path>
            <path d="M121.323956,42.4074066 C119.067033,38.6293846 118.418242,34.1986154 119.494286,29.930044 C120.044176,27.7581758 121.007473,25.7623516 122.316923,24.0256484 C122.483077,22.2137802 122.815385,20.4236703 123.3,18.6750989 C119.959121,21.3256484 117.583516,24.9750989 116.523297,29.1803736 C115.247473,34.2421319 116.016923,39.4957582 118.695165,43.977956 C121.369451,48.4601538 125.632088,51.6309231 130.691868,52.9087253 C132.288132,53.3102637 133.902198,53.5080659 135.506374,53.5080659 C136.345055,53.5080659 137.17978,53.4526813 138.006593,53.3438901 C136.386593,52.4715824 134.857582,51.4489451 133.431429,50.2977363 C128.569451,49.6865275 124.023956,46.9311429 121.323956,42.4074066" id="Fill-21" fill="#00E7EC" mask="url(#mask-2)"></path>
            <path d="M116.86767,50.1572967 C114.466352,49.550044 112.444813,48.0467473 111.172945,45.9183956 C109.903055,43.792022 109.539099,41.2977363 110.144374,38.8964176 C110.522176,37.3970769 111.250088,36.0441099 112.262835,34.9324615 C112.207451,33.5557582 112.276681,32.1691648 112.468549,30.7885055 C106.89844,34.3647692 105.124154,41.7665275 108.544154,47.4889451 C110.233385,50.3194945 112.923495,52.3212527 116.118,53.1263077 C117.126791,53.3814725 118.145473,53.5060879 119.15822,53.5060879 C120.220418,53.5060879 121.274703,53.3656484 122.299319,53.0907033 C121.159978,52.3074066 120.089868,51.4232308 119.104813,50.4421319 C118.359099,50.4381758 117.609429,50.3452088 116.86767,50.1572967" id="Fill-22" fill="#00E7EC" mask="url(#mask-2)"></path>
        </g>
    </g>
</svg>